<?xml version="1.0" standalone="no"?>
<!DOCTYPE svg PUBLIC "-//W3C//DTD SVG 20010904//EN"
 "http://www.w3.org/TR/2001/REC-SVG-20010904/DTD/svg10.dtd">
<svg version="1.0" xmlns="http://www.w3.org/2000/svg"
 width="1024.000000pt" height="1024.000000pt" viewBox="0 0 1024.000000 1024.000000"
 preserveAspectRatio="xMidYMid meet">

<g transform="translate(0.000000,1024.000000) scale(0.100000,-0.100000)" stroke="none">
<path fill="#000000" d="M4781 8329 c-855 -54 -1646 -313 -2091 -684 -241 -201 -381 -427 -437 -702 -25 -125 -25 -480 0 -648 42 -275 155 -662 292 -995 88 -217 320 -685 435 -880 484 -822 1154 -1577 1732 -1954 355 -231 547 -229 916 12 560 365 1204 1128 1702 2016 368 658 632 1405 681 1930 14 156 7 399 -16 514 -28 146 -94 303 -178 427 -215 319 -656 591 -1257 776 -497 153 -1184 226 -1779 188z m769 -842 c0 -8 -21 -81 -46 -163 -25 -82 -83 -275 -128 -429 -46 -154 -150 -504 -231 -777 l-149 -498 -133 0 c-73 0 -133 3 -133 6 0 6 58 205 261 894 55 190 123 420 150 512 59 205 128 439 134 456 6 18 275 17 275 -1z m-1010 -439 l-1 -143 -242 -117 c-133 -65 -328 -160 -433 -211 l-191 -92 201 -96 c110 -53 308 -147 438 -210 l237 -114 1 -142 c0 -79 -2 -143 -5 -143 -13 0 -1263 604 -1279 618 -51 46 -54 123 -6 170 15 15 198 108 421 215 372 177 851 404 857 406 1 1 2 -63 2 -141z m1466 -1 c429 -206 516 -248 729 -349 105 -50 204 -101 221 -114 39 -29 58 -74 50 -117 -12 -65 -5 -61 -636 -362 -113 -54 -310 -149 -439 -211 -129 -63 -236 -114 -238 -114 -1 0 -3 66 -3 148 l1 147 302 142 c166 79 364 171 439 206 l137 64 -122 60 c-67 33 -265 129 -439 213 l-318 153 0 139 c0 76 4 138 8 138 5 0 143 -65 308 -143z"/>
<path fill="#28C8FF" d="M4420 5410 c57 -30 104 -179 149 -465 48 -300 103 -580 111 -564 4 8 13 48 20 89 30 187 82 425 97 451 30 51 72 48 109 -8 10 -15 41 -89 70 -163 l52 -134 10 39 c52 203 118 440 135 485 24 66 65 110 102 110 70 0 116 -110 165 -390 28 -161 86 -439 93 -447 5 -4 63 176 107 332 53 183 101 249 164 226 35 -14 68 -67 125 -202 58 -137 79 -179 90 -179 4 0 41 64 81 143 110 214 128 236 196 237 48 0 73 -23 123 -113 18 -32 43 -64 55 -72 17 -11 92 -19 292 -30 318 -18 446 -27 441 -31 -14 -14 -646 -77 -724 -72 -77 5 -106 24 -152 102 -42 70 -33 78 -138 -127 -82 -162 -105 -187 -175 -187 -27 0 -47 8 -70 29 -35 30 -48 53 -118 206 l-42 90 -73 -222 c-82 -250 -105 -294 -163 -309 -92 -25 -155 119 -228 521 -14 77 -30 168 -37 203 -6 34 -15 62 -19 62 -4 0 -8 -6 -8 -14 0 -26 -119 -456 -135 -486 -40 -77 -96 -91 -149 -37 -30 30 -96 168 -96 201 0 8 -4 17 -8 20 -4 2 -24 -84 -44 -192 -57 -303 -87 -382 -147 -382 -88 0 -142 180 -242 803 -18 114 -36 207 -39 207 -3 0 -16 -60 -28 -133 -70 -390 -103 -515 -153 -568 -26 -28 -34 -31 -67 -26 -67 11 -85 44 -207 375 l-38 103 -32 -78 c-18 -43 -48 -96 -68 -118 l-35 -40 -113 1 c-116 1 -593 50 -618 64 -13 7 16 10 413 35 163 10 235 19 251 29 13 9 36 49 55 98 67 167 95 208 142 208 68 0 83 -25 169 -275 71 -210 78 -229 83 -224 5 4 73 347 107 534 27 154 53 235 83 268 27 29 46 33 76 17z"/>
</g>
</svg>
